<svg xmlns="http://www.w3.org/2000/svg" xmlns:v="https://svgstorm.com"
viewBox = "0 0 50 50"
width="50"
height="50">
<g fill="None" fill-opacity="0.0" stroke="#000000" stroke-opacity="0.00" stroke-width="0.3"><path d="
M 0.00 50.00 
L 1.00 50.00
C 1.00 45.33 1.00 40.67 1.00 36.00
C 11.40 32.70 8.94 43.30 9.00 50.00
L 11.00 50.00
C 11.00 44.00 11.00 38.00 11.00 32.00
C 23.18 28.48 17.95 42.87 19.00 50.00
L 21.00 50.00
C 21.00 41.33 21.00 32.67 21.00 24.00
C 35.45 21.20 26.57 41.43 29.00 50.00
L 31.00 50.00
C 31.00 43.00 31.00 36.00 31.00 29.00
C 44.19 25.61 37.35 42.41 39.00 50.00
L 41.00 50.00
C 41.00 38.33 41.00 26.67 41.00 15.00
C 50.94 12.13 49.10 20.99 49.00 28.00 C 48.90 35.01 49.08 42.91 49.00 50.00
L 50.00 50.00
L 50.00 0.00
L 0.00 0.00
L 0.00 50.00
M 47.00 2.00 
C 46.55 8.68 37.51 12.71 37.00 20.00
C 30.48 16.56 20.49 12.32 17.00 23.00
C 11.56 22.00 8.17 27.39 3.00 27.00
C 4.76 19.27 20.45 20.64 23.00 11.00
C 27.54 10.79 30.23 15.35 35.00 16.00
C 38.87 11.35 40.98 2.57 47.00 2.00 Z"/>
</g>
<g fill="None" fill-opacity="0.0" stroke="#191919" stroke-opacity="0.74" stroke-width="0.3"><path d="
M 47.00 2.00 
C 40.98 2.57 38.87 11.35 35.00 16.00
C 30.23 15.35 27.54 10.79 23.00 11.00
C 20.45 20.64 4.76 19.27 3.00 27.00
C 8.17 27.39 11.56 22.00 17.00 23.00
C 20.49 12.32 30.48 16.56 37.00 20.00
C 37.51 12.71 46.55 8.68 47.00 2.00 Z"/>
</g>
<g fill="None" fill-opacity="0.0" stroke="#1A1A1A" stroke-opacity="1.00" stroke-width="0.3"><path d="
M 41.00 50.00 
L 49.00 50.00
C 49.08 42.91 48.90 35.01 49.00 28.00 C 49.10 20.99 50.94 12.13 41.00 15.00
C 41.00 26.67 41.00 38.33 41.00 50.00
M 47.00 17.00 
C 47.00 27.33 47.00 37.67 47.00 48.00
C 40.65 48.64 42.82 37.82 43.00 33.00 C 43.19 28.18 40.25 16.43 47.00 17.00 Z"/>
</g>
<g fill="None" fill-opacity="0.0" stroke="#000000" stroke-opacity="0.00" stroke-width="0.3"><path d="
M 47.00 17.00 
C 40.25 16.43 43.19 28.18 43.00 33.00 C 42.82 37.82 40.65 48.64 47.00 48.00
C 47.00 37.67 47.00 27.33 47.00 17.00 Z"/>
</g>
<g fill="None" fill-opacity="0.0" stroke="#1A1A1A" stroke-opacity="1.00" stroke-width="0.3"><path d="
M 21.00 50.00 
L 29.00 50.00
C 26.57 41.43 35.45 21.20 21.00 24.00
C 21.00 32.67 21.00 41.33 21.00 50.00
M 27.00 26.00 
C 27.00 33.33 27.00 40.67 27.00 48.00
C 21.03 49.42 22.98 40.78 23.00 37.00 C 23.02 33.22 20.94 24.63 27.00 26.00 Z"/>
</g>
<g fill="None" fill-opacity="0.0" stroke="#000000" stroke-opacity="0.00" stroke-width="0.3"><path d="
M 27.00 26.00 
C 20.94 24.63 23.02 33.22 23.00 37.00 C 22.98 40.78 21.03 49.42 27.00 48.00
C 27.00 40.67 27.00 33.33 27.00 26.00 Z"/>
</g>
<g fill="None" fill-opacity="0.0" stroke="#1A1A1A" stroke-opacity="1.00" stroke-width="0.3"><path d="
M 31.00 50.00 
L 39.00 50.00
C 37.35 42.41 44.19 25.61 31.00 29.00
C 31.00 36.00 31.00 43.00 31.00 50.00
M 37.00 31.00 
C 37.00 36.67 37.00 42.33 37.00 48.00
C 30.68 49.10 30.58 29.91 37.00 31.00 Z"/>
</g>
<g fill="None" fill-opacity="0.0" stroke="#000000" stroke-opacity="0.00" stroke-width="0.3"><path d="
M 37.00 31.00 
C 30.58 29.91 30.68 49.10 37.00 48.00
C 37.00 42.33 37.00 36.67 37.00 31.00 Z"/>
</g>
<g fill="None" fill-opacity="0.0" stroke="#1A1A1A" stroke-opacity="1.00" stroke-width="0.3"><path d="
M 11.00 50.00 
L 19.00 50.00
C 17.95 42.87 23.18 28.48 11.00 32.00
C 11.00 38.00 11.00 44.00 11.00 50.00
M 17.00 34.00 
C 17.00 38.67 17.00 43.33 17.00 48.00
C 10.79 49.72 10.68 32.30 17.00 34.00 Z"/>
</g>
<g fill="None" fill-opacity="0.0" stroke="#000000" stroke-opacity="0.00" stroke-width="0.3"><path d="
M 17.00 34.00 
C 10.68 32.30 10.79 49.72 17.00 48.00
C 17.00 43.33 17.00 38.67 17.00 34.00 Z"/>
</g>
<g fill="None" fill-opacity="0.0" stroke="#1A1A1A" stroke-opacity="1.00" stroke-width="0.3"><path d="
M 1.00 50.00 
L 9.00 50.00
C 8.94 43.30 11.40 32.70 1.00 36.00
C 1.00 40.67 1.00 45.33 1.00 50.00
M 7.00 38.00 
C 7.00 41.33 7.00 44.67 7.00 48.00
C 1.04 50.29 0.91 35.73 7.00 38.00 Z"/>
</g>
<g fill="None" fill-opacity="0.0" stroke="#000000" stroke-opacity="0.00" stroke-width="0.3"><path d="
M 7.00 38.00 
C 0.91 35.73 1.04 50.29 7.00 48.00
C 7.00 44.67 7.00 41.33 7.00 38.00 Z"/>
</g>
<g fill="#000000" fill-opacity="0.00" stroke="None">
<path d="
M 0.00 50.00 
L 1.00 50.00
C 1.00 45.33 1.00 40.67 1.00 36.00
C 11.40 32.70 8.94 43.30 9.00 50.00
L 11.00 50.00
C 11.00 44.00 11.00 38.00 11.00 32.00
C 23.18 28.48 17.95 42.87 19.00 50.00
L 21.00 50.00
C 21.00 41.33 21.00 32.67 21.00 24.00
C 35.45 21.20 26.57 41.43 29.00 50.00
L 31.00 50.00
C 31.00 43.00 31.00 36.00 31.00 29.00
C 44.19 25.61 37.35 42.41 39.00 50.00
L 41.00 50.00
C 41.00 38.33 41.00 26.67 41.00 15.00
C 50.94 12.13 49.10 20.99 49.00 28.00 C 48.90 35.01 49.08 42.91 49.00 50.00
L 50.00 50.00
L 50.00 0.00
L 0.00 0.00
L 0.00 50.00
M 47.00 2.00 
C 46.55 8.68 37.51 12.71 37.00 20.00
C 30.48 16.56 20.49 12.32 17.00 23.00
C 11.56 22.00 8.17 27.39 3.00 27.00
C 4.76 19.27 20.45 20.64 23.00 11.00
C 27.54 10.79 30.23 15.35 35.00 16.00
C 38.87 11.35 40.98 2.57 47.00 2.00 Z"/>
</g>
<g fill="#191919" fill-opacity="0.74" stroke="None">
<path d="
M 47.00 2.00 
C 40.98 2.57 38.87 11.35 35.00 16.00
C 30.23 15.35 27.54 10.79 23.00 11.00
C 20.45 20.64 4.76 19.27 3.00 27.00
C 8.17 27.39 11.56 22.00 17.00 23.00
C 20.49 12.32 30.48 16.56 37.00 20.00
C 37.51 12.71 46.55 8.68 47.00 2.00 Z"/>
</g>
<g fill="#1A1A1A" fill-opacity="1.00" stroke="None">
<path d="
M 41.00 50.00 
L 49.00 50.00
C 49.08 42.91 48.90 35.01 49.00 28.00 C 49.10 20.99 50.94 12.13 41.00 15.00
C 41.00 26.67 41.00 38.33 41.00 50.00
M 47.00 17.00 
C 47.00 27.33 47.00 37.67 47.00 48.00
C 40.65 48.64 42.82 37.82 43.00 33.00 C 43.19 28.18 40.25 16.43 47.00 17.00 Z"/>
</g>
<g fill="#000000" fill-opacity="0.00" stroke="None">
<path d="
M 47.00 17.00 
C 40.25 16.43 43.19 28.18 43.00 33.00 C 42.82 37.82 40.65 48.64 47.00 48.00
C 47.00 37.67 47.00 27.33 47.00 17.00 Z"/>
</g>
<g fill="#1A1A1A" fill-opacity="1.00" stroke="None">
<path d="
M 21.00 50.00 
L 29.00 50.00
C 26.57 41.43 35.45 21.20 21.00 24.00
C 21.00 32.67 21.00 41.33 21.00 50.00
M 27.00 26.00 
C 27.00 33.33 27.00 40.67 27.00 48.00
C 21.03 49.42 22.98 40.78 23.00 37.00 C 23.02 33.22 20.94 24.63 27.00 26.00 Z"/>
</g>
<g fill="#000000" fill-opacity="0.00" stroke="None">
<path d="
M 27.00 26.00 
C 20.94 24.63 23.02 33.22 23.00 37.00 C 22.98 40.78 21.03 49.42 27.00 48.00
C 27.00 40.67 27.00 33.33 27.00 26.00 Z"/>
</g>
<g fill="#1A1A1A" fill-opacity="1.00" stroke="None">
<path d="
M 31.00 50.00 
L 39.00 50.00
C 37.35 42.41 44.19 25.61 31.00 29.00
C 31.00 36.00 31.00 43.00 31.00 50.00
M 37.00 31.00 
C 37.00 36.67 37.00 42.33 37.00 48.00
C 30.68 49.10 30.58 29.91 37.00 31.00 Z"/>
</g>
<g fill="#000000" fill-opacity="0.00" stroke="None">
<path d="
M 37.00 31.00 
C 30.58 29.91 30.68 49.10 37.00 48.00
C 37.00 42.33 37.00 36.67 37.00 31.00 Z"/>
</g>
<g fill="#1A1A1A" fill-opacity="1.00" stroke="None">
<path d="
M 11.00 50.00 
L 19.00 50.00
C 17.95 42.87 23.18 28.48 11.00 32.00
C 11.00 38.00 11.00 44.00 11.00 50.00
M 17.00 34.00 
C 17.00 38.67 17.00 43.33 17.00 48.00
C 10.79 49.72 10.68 32.30 17.00 34.00 Z"/>
</g>
<g fill="#000000" fill-opacity="0.00" stroke="None">
<path d="
M 17.00 34.00 
C 10.68 32.30 10.79 49.72 17.00 48.00
C 17.00 43.33 17.00 38.67 17.00 34.00 Z"/>
</g>
<g fill="#1A1A1A" fill-opacity="1.00" stroke="None">
<path d="
M 1.00 50.00 
L 9.00 50.00
C 8.94 43.30 11.40 32.70 1.00 36.00
C 1.00 40.67 1.00 45.33 1.00 50.00
M 7.00 38.00 
C 7.00 41.33 7.00 44.67 7.00 48.00
C 1.04 50.29 0.91 35.73 7.00 38.00 Z"/>
</g>
<g fill="#000000" fill-opacity="0.00" stroke="None">
<path d="
M 7.00 38.00 
C 0.91 35.73 1.04 50.29 7.00 48.00
C 7.00 44.67 7.00 41.33 7.00 38.00 Z"/>
</g>
</svg>