<?xml version="1.0" standalone="no"?>
<!DOCTYPE svg PUBLIC "-//W3C//DTD SVG 20010904//EN"
 "http://www.w3.org/TR/2001/REC-SVG-20010904/DTD/svg10.dtd">
<svg version="1.0" xmlns="http://www.w3.org/2000/svg"
 width="64.000000pt" height="64.000000pt" viewBox="0 0 64.000000 64.000000"
 preserveAspectRatio="xMidYMid meet">

<g transform="translate(0.000000,64.000000) scale(0.100000,-0.100000)"
fill="#000000" stroke="none">
<path d="M235 621 c-71 -33 -115 -102 -115 -181 0 -32 -4 -40 -18 -40 -38 0
-42 -19 -42 -180 0 -108 4 -160 12 -168 17 -17 479 -17 496 0 8 8 12 60 12
168 0 161 -4 180 -42 180 -14 0 -18 8 -18 43 0 49 -27 113 -61 144 -58 53
-152 67 -224 34z m45 -24 c0 -16 -9 -26 -29 -34 -39 -14 -63 -54 -69 -114 -4
-40 -8 -49 -23 -49 -15 0 -19 8 -19 39 0 51 15 89 48 125 21 22 70 53 90 56 1
0 2 -10 2 -23z m60 3 c0 -13 -7 -20 -20 -20 -13 0 -20 7 -20 20 0 13 7 20 20
20 13 0 20 -7 20 -20z m104 -28 c36 -34 56 -80 56 -132 0 -33 -3 -40 -20 -40
-16 0 -20 7 -20 38 0 51 -29 103 -67 121 -22 11 -33 23 -33 38 0 20 3 22 28
12 15 -6 40 -22 56 -37z m-37 -45 c19 -18 27 -39 31 -76 l5 -51 -123 0 -123 0
5 50 c8 80 48 112 131 106 36 -2 56 -10 74 -29z m153 -307 l0 -160 -240 0
-240 0 0 160 0 160 240 0 240 0 0 -160z"/>
<path d="M410 318 c0 -5 7 -8 15 -8 19 0 21 -56 3 -64 -10 -5 -10 -7 0 -12 18
-8 16 -64 -3 -64 -8 0 -15 -3 -15 -8 0 -4 18 -7 40 -7 22 0 40 3 40 7 0 5 -7
8 -15 8 -19 0 -21 56 -2 64 10 5 10 7 0 12 -19 8 -17 64 2 64 8 0 15 3 15 8 0
4 -18 7 -40 7 -22 0 -40 -3 -40 -7z"/>
<path d="M164 249 c-10 -17 13 -36 27 -22 12 12 4 33 -11 33 -5 0 -12 -5 -16
-11z"/>
<path d="M254 249 c-10 -17 13 -36 27 -22 12 12 4 33 -11 33 -5 0 -12 -5 -16
-11z"/>
<path d="M344 249 c-10 -17 13 -36 27 -22 12 12 4 33 -11 33 -5 0 -12 -5 -16
-11z"/>
<path d="M100 90 c0 -6 67 -10 180 -10 113 0 180 4 180 10 0 6 -67 10 -180 10
-113 0 -180 -4 -180 -10z"/>
<path d="M480 90 c0 -5 14 -10 30 -10 17 0 30 5 30 10 0 6 -13 10 -30 10 -16
0 -30 -4 -30 -10z"/>
</g>
</svg>
