<?xml version="1.0" standalone="no"?>
<!DOCTYPE svg PUBLIC "-//W3C//DTD SVG 20010904//EN"
 "http://www.w3.org/TR/2001/REC-SVG-20010904/DTD/svg10.dtd">
<svg version="1.0" xmlns="http://www.w3.org/2000/svg"
 width="50.000000pt" height="50.000000pt" viewBox="0 0 50.000000 50.000000"
 preserveAspectRatio="xMidYMid meet">

<g transform="translate(0.000000,50.000000) scale(0.100000,-0.100000)"
fill="#000000" stroke="none">
<path d="M10 250 l0 -180 240 0 240 0 0 180 0 180 -240 0 -240 0 0 -180z m460
0 l0 -160 -220 0 -220 0 0 160 0 160 220 0 220 0 0 -160z"/>
<path d="M143 379 c-64 -57 -73 -69 -73 -99 0 -22 9 -41 29 -61 40 -39 83 -39
119 0 41 44 52 59 52 71 0 25 -32 71 -60 85 -33 17 -50 18 -67 4z m78 -38 c39
-40 37 -51 -11 -51 l-40 0 0 40 c0 48 11 50 51 11z m-71 -31 l0 -40 40 0 c46
0 48 -5 18 -37 -27 -29 -65 -29 -95 -1 -29 27 -29 65 -1 95 30 32 38 29 38
-17z"/>
<path d="M320 340 c0 -5 23 -10 50 -10 28 0 50 5 50 10 0 6 -22 10 -50 10 -27
0 -50 -4 -50 -10z"/>
<path d="M320 280 c0 -5 23 -10 50 -10 28 0 50 5 50 10 0 6 -22 10 -50 10 -27
0 -50 -4 -50 -10z"/>
<path d="M320 220 c0 -5 23 -10 50 -10 28 0 50 5 50 10 0 6 -22 10 -50 10 -27
0 -50 -4 -50 -10z"/>
<path d="M158 153 c-97 -5 -103 -23 -9 -23 38 0 76 -3 85 -6 12 -4 16 0 16 15
0 12 -3 20 -7 19 -5 -1 -43 -4 -85 -5z"/>
<path d="M270 140 c0 -6 32 -10 75 -10 43 0 75 4 75 10 0 6 -32 10 -75 10 -43
0 -75 -4 -75 -10z"/>
</g>
</svg>
