<?xml version="1.0" standalone="no"?>
<!DOCTYPE svg PUBLIC "-//W3C//DTD SVG 20010904//EN"
 "http://www.w3.org/TR/2001/REC-SVG-20010904/DTD/svg10.dtd">
<svg version="1.0" xmlns="http://www.w3.org/2000/svg"
 width="64.000000pt" height="64.000000pt" viewBox="0 0 64.000000 64.000000"
 preserveAspectRatio="xMidYMid meet">

<g transform="translate(0.000000,64.000000) scale(0.100000,-0.100000)"
fill="#000000" stroke="none">
<path d="M196 626 c-52 -16 -76 -48 -76 -102 0 -23 -4 -46 -10 -49 -18 -11
-11 -53 15 -91 14 -20 25 -42 25 -49 0 -7 -26 -28 -58 -47 -37 -22 -63 -46
-74 -68 -21 -40 -24 -130 -6 -148 8 -8 54 -12 139 -12 l128 0 3 -28 c2 -22 9
-28 33 -30 24 -2 41 7 90 52 33 31 65 55 70 55 6 0 19 -6 29 -14 38 -28 59
-19 99 45 28 45 35 65 28 78 -12 22 -127 132 -138 132 -5 0 -25 -11 -46 -25
-30 -21 -41 -24 -57 -15 -26 14 -25 30 5 74 29 43 32 72 8 98 -15 17 -15 19 0
31 15 11 15 15 -6 52 -38 68 -109 89 -201 61z m133 -19 c13 -6 33 -25 45 -40
16 -22 18 -30 7 -36 -15 -9 -6 -71 10 -71 15 0 10 -50 -5 -56 -8 -3 -17 -16
-20 -29 -3 -13 -21 -40 -40 -59 -46 -49 -86 -49 -132 0 -19 19 -37 46 -40 59
-3 13 -12 26 -20 29 -16 6 -19 56 -4 56 6 0 10 24 10 53 0 62 5 70 50 90 43
19 107 21 139 4z m229 -340 l62 -63 -36 -57 -35 -57 -39 23 -39 22 -28 -28
c-16 -15 -34 -27 -39 -27 -5 0 -21 -13 -34 -30 -28 -33 -70 -41 -70 -13 0 10
28 46 63 81 l62 63 -23 39 -22 39 52 35 c29 19 55 35 58 35 3 1 34 -27 68 -62z
m-365 23 c41 -39 93 -39 134 0 12 11 29 17 37 14 18 -7 19 -13 6 -34 -6 -10
-3 -25 11 -49 l20 -34 -40 -41 c-30 -30 -41 -36 -41 -23 0 9 -5 17 -11 17 -6
0 -9 -12 -7 -27 l3 -28 -144 -3 -143 -3 4 65 c4 75 16 91 92 136 28 16 52 30
54 30 2 0 13 -9 25 -20z"/>
<path d="M180 539 c-14 -25 -3 -41 11 -17 9 15 13 16 50 2 48 -16 99 -19 99
-4 0 6 -13 10 -29 10 -16 0 -48 7 -71 15 -52 18 -47 19 -60 -6z"/>
<path d="M460 280 c-13 -8 -13 -14 4 -45 25 -46 81 -82 101 -65 24 20 17 44
-23 83 -39 38 -56 44 -82 27z m67 -42 c32 -31 43 -58 23 -58 -12 0 -80 68 -80
80 0 19 24 10 57 -22z"/>
<path d="M170 252 c0 -4 20 -18 45 -30 l45 -22 45 22 c25 12 45 26 45 30 0 12
-7 10 -50 -12 l-40 -20 -40 20 c-43 22 -50 24 -50 12z"/>
<path d="M50 120 c0 -11 5 -20 10 -20 6 0 10 9 10 20 0 11 -4 20 -10 20 -5 0
-10 -9 -10 -20z"/>
<path d="M100 120 c0 -11 5 -20 10 -20 6 0 10 9 10 20 0 11 -4 20 -10 20 -5 0
-10 -9 -10 -20z"/>
<path d="M150 120 c0 -11 5 -20 10 -20 6 0 10 9 10 20 0 11 -4 20 -10 20 -5 0
-10 -9 -10 -20z"/>
<path d="M200 120 c0 -11 5 -20 10 -20 6 0 10 9 10 20 0 11 -4 20 -10 20 -5 0
-10 -9 -10 -20z"/>
<path d="M250 120 c0 -11 5 -20 10 -20 6 0 10 9 10 20 0 11 -4 20 -10 20 -5 0
-10 -9 -10 -20z"/>
</g>
</svg>
