<?xml version="1.0" standalone="no"?>
<!DOCTYPE svg PUBLIC "-//W3C//DTD SVG 20010904//EN"
 "http://www.w3.org/TR/2001/REC-SVG-20010904/DTD/svg10.dtd">
<svg version="1.0" xmlns="http://www.w3.org/2000/svg"
 width="64.000000pt" height="64.000000pt" viewBox="0 0 64.000000 64.000000"
 preserveAspectRatio="xMidYMid meet">

<g transform="translate(0.000000,64.000000) scale(0.100000,-0.100000)"
fill="#000000" stroke="none">
<path d="M228 570 c-21 -30 -23 -30 -113 -30 -57 0 -95 -4 -103 -12 -15 -15
-16 -134 -2 -143 6 -4 10 -63 10 -144 0 -93 4 -141 12 -149 17 -17 559 -17
576 0 8 8 12 56 12 149 0 81 4 140 10 144 14 9 13 128 -2 143 -8 8 -46 12
-103 12 -90 0 -92 0 -113 30 -21 28 -26 30 -92 30 -66 0 -71 -2 -92 -30z m172
-10 c10 -19 8 -20 -80 -20 -88 0 -90 1 -80 20 9 17 21 20 80 20 59 0 71 -3 80
-20z m217 -99 c2 -37 -2 -63 -10 -69 -23 -18 -240 -63 -251 -52 -13 13 -59 13
-72 0 -11 -11 -229 34 -251 52 -8 6 -12 32 -10 69 l2 59 295 0 295 0 2 -59z
m-470 -121 c48 -11 98 -22 110 -25 15 -3 23 -14 25 -33 3 -24 7 -27 38 -27 31
0 35 3 38 27 3 25 9 28 113 52 60 14 114 26 119 26 7 0 10 -46 8 -127 l-3
-128 -275 0 -275 0 -3 128 c-2 79 1 127 7 127 6 0 50 -9 98 -20z m193 -40 c0
-23 -4 -30 -20 -30 -16 0 -20 7 -20 30 0 23 4 30 20 30 16 0 20 -7 20 -30z"/>
<path d="M60 480 c0 -11 5 -20 10 -20 6 0 10 9 10 20 0 11 -4 20 -10 20 -5 0
-10 -9 -10 -20z"/>
<path d="M110 480 c0 -11 5 -20 10 -20 6 0 10 9 10 20 0 11 -4 20 -10 20 -5 0
-10 -9 -10 -20z"/>
<path d="M160 480 c0 -11 5 -20 10 -20 6 0 10 9 10 20 0 11 -4 20 -10 20 -5 0
-10 -9 -10 -20z"/>
<path d="M210 480 c0 -11 5 -20 10 -20 6 0 10 9 10 20 0 11 -4 20 -10 20 -5 0
-10 -9 -10 -20z"/>
<path d="M260 480 c0 -11 5 -20 10 -20 6 0 10 9 10 20 0 11 -4 20 -10 20 -5 0
-10 -9 -10 -20z"/>
<path d="M310 480 c0 -11 5 -20 10 -20 6 0 10 9 10 20 0 11 -4 20 -10 20 -5 0
-10 -9 -10 -20z"/>
<path d="M360 480 c0 -11 5 -20 10 -20 6 0 10 9 10 20 0 11 -4 20 -10 20 -5 0
-10 -9 -10 -20z"/>
<path d="M410 480 c0 -11 5 -20 10 -20 6 0 10 9 10 20 0 11 -4 20 -10 20 -5 0
-10 -9 -10 -20z"/>
<path d="M460 480 c0 -11 5 -20 10 -20 6 0 10 9 10 20 0 11 -4 20 -10 20 -5 0
-10 -9 -10 -20z"/>
<path d="M510 480 c0 -11 5 -20 10 -20 6 0 10 9 10 20 0 11 -4 20 -10 20 -5 0
-10 -9 -10 -20z"/>
<path d="M560 480 c0 -11 5 -20 10 -20 6 0 10 9 10 20 0 11 -4 20 -10 20 -5 0
-10 -9 -10 -20z"/>
<path d="M60 150 c0 -6 80 -10 220 -10 140 0 220 4 220 10 0 6 -80 10 -220 10
-140 0 -220 -4 -220 -10z"/>
<path d="M520 150 c0 -5 14 -10 30 -10 17 0 30 5 30 10 0 6 -13 10 -30 10 -16
0 -30 -4 -30 -10z"/>
</g>
</svg>
