<?xml version="1.0" standalone="no"?>
<!DOCTYPE svg PUBLIC "-//W3C//DTD SVG 20010904//EN"
 "http://www.w3.org/TR/2001/REC-SVG-20010904/DTD/svg10.dtd">
<svg version="1.0" xmlns="http://www.w3.org/2000/svg"
 width="100.000000pt" height="100.000000pt" viewBox="0 0 100.000000 100.000000"
 preserveAspectRatio="xMidYMid meet">

<g transform="translate(0.000000,100.000000) scale(0.100000,-0.100000)"
fill="#000000" stroke="none">
<path d="M359 819 c-45 -20 -47 -22 -42 -57 6 -52 -14 -75 -73 -81 -47 -6 -49
-8 -68 -53 l-19 -47 31 -29 c40 -37 40 -65 2 -104 -16 -16 -30 -32 -30 -34 0
-3 10 -27 21 -55 21 -48 22 -49 58 -43 30 5 40 1 60 -20 19 -20 23 -32 18 -60
-5 -33 -4 -35 43 -55 61 -26 60 -26 86 6 29 36 79 36 110 0 13 -15 26 -27 29
-27 4 0 28 9 55 21 47 20 48 22 43 55 -5 28 -1 40 18 60 20 21 31 25 61 21 35
-5 38 -3 57 39 27 56 27 57 -10 93 -36 37 -34 73 6 106 30 25 31 33 4 89 -20
43 -21 44 -58 39 -54 -7 -85 24 -78 77 5 38 4 39 -43 59 -27 12 -51 21 -54 21
-2 0 -18 -13 -34 -30 -17 -16 -40 -30 -52 -30 -12 0 -35 14 -52 30 -16 17 -33
30 -36 30 -4 -1 -28 -10 -53 -21z m75 -26 c34 -39 98 -39 132 0 23 27 24 27
62 12 35 -14 38 -18 34 -50 -6 -48 40 -95 92 -95 32 0 38 -5 53 -36 17 -35 17
-36 -5 -52 -46 -35 -43 -123 4 -150 17 -10 17 -12 0 -49 -16 -36 -20 -39 -51
-35 -28 3 -40 -2 -66 -27 -25 -26 -30 -38 -27 -66 4 -32 1 -36 -34 -50 -36
-14 -38 -14 -62 10 -35 35 -98 35 -131 -1 -22 -24 -24 -24 -59 -10 -32 13 -36
19 -36 51 0 53 -48 100 -95 92 -32 -5 -34 -3 -49 35 -16 39 -16 40 8 59 44 34
41 104 -5 140 -20 15 -20 17 -5 52 13 33 19 37 51 37 53 0 99 47 93 95 -4 32
-1 36 32 49 19 8 36 15 38 15 2 1 14 -11 26 -26z"/>
<path d="M478 713 c6 -2 18 -2 25 0 6 3 1 5 -13 5 -14 0 -19 -2 -12 -5z"/>
<path d="M379 682 c-27 -18 -53 -46 -67 -73 -13 -24 -17 -35 -8 -25 8 10 17
24 19 30 3 8 8 7 17 -1 11 -10 11 -18 2 -38 -7 -14 -12 -31 -12 -38 0 -7 9 6
19 28 22 49 48 72 98 91 35 13 36 14 8 12 -16 -2 -36 -9 -44 -16 -12 -12 -16
-11 -24 3 -10 18 9 39 25 29 4 -3 8 -1 8 5 0 5 8 12 18 14 13 4 13 5 1 6 -8 0
-35 -12 -60 -27z m1 -41 c0 -24 -18 -37 -32 -23 -8 8 -7 16 2 27 17 21 30 19
30 -4z"/>
<path d="M584 696 c11 -9 24 -16 29 -16 4 0 5 -4 2 -10 -3 -5 0 -10 8 -10 8 0
20 -7 27 -15 11 -13 8 -15 -13 -15 -14 0 -30 6 -34 14 -4 8 -26 17 -48 20
l-40 7 38 -15 c50 -19 75 -42 99 -91 11 -22 17 -30 15 -17 -4 16 -1 22 13 22
10 0 21 -6 23 -12 4 -9 6 -8 6 3 2 31 -55 104 -100 127 -24 13 -35 16 -25 8z
m96 -80 c0 -2 3 -11 6 -20 4 -12 0 -16 -15 -16 -12 0 -21 2 -21 4 0 2 -3 11
-6 20 -4 12 0 16 15 16 12 0 21 -2 21 -4z"/>
<path d="M457 542 c-36 -40 -9 -102 45 -102 51 0 78 69 40 103 -24 22 -65 21
-85 -1z m81 -4 c7 -7 12 -24 12 -38 0 -14 -5 -31 -12 -38 -7 -7 -24 -12 -38
-12 -33 0 -50 17 -50 50 0 14 5 31 12 38 7 7 24 12 38 12 14 0 31 -5 38 -12z"/>
<path d="M322 500 c0 -14 2 -19 5 -12 2 6 2 18 0 25 -3 6 -5 1 -5 -13z"/>
<path d="M672 500 c0 -14 2 -19 5 -12 2 6 2 18 0 25 -3 6 -5 1 -5 -13z"/>
<path d="M330 460 c0 -8 7 -28 15 -44 19 -36 19 -36 -4 -36 -22 0 -36 26 -18
34 7 2 4 5 -5 5 -10 1 -18 6 -18 13 0 6 -3 9 -6 6 -9 -10 22 -62 57 -96 36
-35 105 -62 158 -62 36 0 149 46 139 56 -3 2 -22 -5 -42 -17 -26 -15 -36 -17
-36 -7 -1 8 -4 7 -11 -4 -5 -10 -19 -18 -29 -18 -39 0 -16 32 30 43 30 7 89
62 101 95 16 43 9 48 -10 7 -38 -85 -127 -124 -206 -90 -52 21 -74 42 -96 90
-10 22 -19 33 -19 25z m70 -109 c0 -18 -29 -19 -45 -1 -13 14 -13 19 -3 23 15
5 48 -10 48 -22z m43 -27 c-1 -6 13 -8 33 -6 28 4 33 1 28 -12 -7 -18 -23 -20
-56 -7 -13 5 -31 12 -41 15 -10 3 -15 11 -12 17 8 13 51 7 48 -7z"/>
</g>
</svg>
